<svg version="1.1" id="Layer_1" xmlns="http://www.w3.org/2000/svg" xmlns:xlink="http://www.w3.org/1999/xlink" x="0px" y="0px"
	 width="100%" viewBox="0 0 214 208" enable-background="new 0 0 214 208" xml:space="preserve">

<path fill="#411985" opacity="1.000000" stroke="none" 
	d="
M174.990906,205.377960 
	C128.339127,205.377975 82.185432,205.380768 36.031738,205.376419 
	C15.910901,205.374527 4.624121,194.003876 4.623015,173.742447 
	C4.620506,127.755371 4.617849,81.768295 4.624277,35.781223 
	C4.627041,16.008081 16.096630,4.625320 36.009804,4.623583 
	C83.996315,4.619398 131.982819,4.619381 179.969330,4.623581 
	C200.088364,4.625343 211.375870,15.998491 211.376984,36.260860 
	C211.379486,81.581451 210.839737,126.911339 211.622543,172.218414 
	C211.972855,192.493561 198.858429,207.226532 177.987701,205.387070 
	C177.160950,205.314194 176.322174,205.377823 174.990906,205.377960 
M140.794769,96.240067 
	C142.327301,93.296234 143.985428,90.410095 145.369415,87.398010 
	C149.988571,77.344948 152.301086,66.955482 149.564056,55.907196 
	C144.629776,35.989498 123.934387,20.512108 104.440948,22.165371 
	C81.790039,24.086424 63.704979,42.734398 61.943123,65.305939 
	C60.672787,81.580513 67.086304,94.657303 77.033455,106.785942 
	C84.658112,116.082764 83.218513,122.292702 72.592201,127.892868 
	C66.130730,131.298126 59.329777,134.072708 52.944424,137.606049 
	C40.516911,144.482849 34.324699,155.619812 32.336304,169.362396 
	C31.812803,172.980515 32.856293,174.686676 37.148289,174.622452 
	C54.460186,174.363388 71.782097,174.701599 89.090424,174.342545 
	C92.192780,174.278183 95.948128,172.698242 98.206284,170.557037 
	C108.834213,160.479630 119.053307,149.970612 129.393478,139.590897 
	C130.442444,138.537918 131.447433,137.399612 132.260147,136.161316 
	C134.021393,133.477722 133.531586,131.238358 130.839767,129.337357 
	C124.280663,124.705231 123.665009,121.840004 128.079117,114.994591 
	C132.038269,108.854767 136.279678,102.896957 140.794769,96.240067 
M106.628998,170.095947 
	C104.612617,172.691132 105.624947,173.986725 108.392670,175.125061 
	C116.042923,178.271500 126.186371,176.534454 131.965210,170.623032 
	C144.632019,157.665604 157.213531,144.624802 169.871460,131.575211 
	C172.172180,133.377960 173.426224,134.443680 174.763855,135.391449 
	C177.570007,137.379745 180.051300,136.928299 180.985016,133.575760 
	C183.787704,123.512665 186.583023,113.429771 188.789154,103.226585 
	C189.731155,98.869957 187.376526,97.022858 183.040985,98.130302 
	C174.521454,100.306465 166.033356,102.646889 157.642548,105.271828 
	C151.751923,107.114616 151.090973,109.360519 154.897644,114.271614 
	C157.121719,117.140953 156.844742,119.144958 154.361511,121.531807 
	C149.440582,126.261703 144.646423,131.125381 139.859055,135.991974 
	C128.889236,147.143341 117.954979,158.329697 106.628998,170.095947 
z"/>
</svg>